<?xml version="1.0" encoding="utf-8" standalone="no"?>
<!DOCTYPE svg PUBLIC "-//W3C//DTD SVG 1.1//EN"
  "http://www.w3.org/Graphics/SVG/1.1/DTD/svg11.dtd">
<!-- Created with matplotlib (http://matplotlib.org/) -->
<svg height="204pt" version="1.1" viewBox="0 0 276 204" width="276pt" xmlns="http://www.w3.org/2000/svg" xmlns:xlink="http://www.w3.org/1999/xlink">
 <defs>
  <style type="text/css">
*{stroke-linecap:butt;stroke-linejoin:round;stroke-miterlimit:100000;}
  </style>
 </defs>
 <g id="figure_1">
  <g id="patch_1">
   <path d="M 0 204.48 
L 276.48 204.48 
L 276.48 0 
L 0 0 
L 0 204.48 
z
" style="fill:none;"/>
  </g>
  <g id="axes_1">
   <g id="patch_2">
    <path d="M 7.2 197.28 
L 269.28 197.28 
L 269.28 7.2 
L 7.2 7.2 
L 7.2 197.28 
z
" style="fill:none;"/>
   </g>
   <g id="PathCollection_1">
    <path clip-path="url(#p3fb3f52a38)" d="M 62.64 104.978613 
C 63.366289 104.978613 64.062928 104.690055 64.576492 104.176492 
C 65.090055 103.662928 65.378613 102.966289 65.378613 102.24 
C 65.378613 101.513711 65.090055 100.817072 64.576492 100.303508 
C 64.062928 99.789945 63.366289 99.501387 62.64 99.501387 
C 61.913711 99.501387 61.217072 99.789945 60.703508 100.303508 
C 60.189945 100.817072 59.901387 101.513711 59.901387 102.24 
C 59.901387 102.966289 60.189945 103.662928 60.703508 104.176492 
C 61.217072 104.690055 61.913711 104.978613 62.64 104.978613 
z
"/>
   </g>
   <g id="PathCollection_2">
    <path clip-path="url(#p3fb3f52a38)" d="M 163.44 61.28841 
C 164.166289 61.28841 164.862928 60.999853 165.376492 60.486289 
C 165.890055 59.972725 166.178613 59.276086 166.178613 58.549797 
C 166.178613 57.823509 165.890055 57.126869 165.376492 56.613306 
C 164.862928 56.099742 164.166289 55.811185 163.44 55.811185 
C 162.713711 55.811185 162.017072 56.099742 161.503508 56.613306 
C 160.989945 57.126869 160.701387 57.823509 160.701387 58.549797 
C 160.701387 59.276086 160.989945 59.972725 161.503508 60.486289 
C 162.017072 60.999853 162.713711 61.28841 163.44 61.28841 
z
"/>
   </g>
   <g id="PathCollection_3">
    <path clip-path="url(#p3fb3f52a38)" d="M 213.84 170.513917 
C 214.566289 170.513917 215.262928 170.225359 215.776492 169.711796 
C 216.290055 169.198232 216.578613 168.501593 216.578613 167.775304 
C 216.578613 167.049015 216.290055 166.352376 215.776492 165.838812 
C 215.262928 165.325249 214.566289 165.036691 213.84 165.036691 
C 213.113711 165.036691 212.417072 165.325249 211.903508 165.838812 
C 211.389945 166.352376 211.101387 167.049015 211.101387 167.775304 
C 211.101387 168.501593 211.389945 169.198232 211.903508 169.711796 
C 212.417072 170.225359 213.113711 170.513917 213.84 170.513917 
z
"/>
   </g>
   <g id="PathCollection_4">
    <path clip-path="url(#p3fb3f52a38)" d="M 213.84 39.443309 
C 214.566289 39.443309 215.262928 39.154751 215.776492 38.641188 
C 216.290055 38.127624 216.578613 37.430985 216.578613 36.704696 
C 216.578613 35.978407 216.290055 35.281768 215.776492 34.768204 
C 215.262928 34.254641 214.566289 33.966083 213.84 33.966083 
C 213.113711 33.966083 212.417072 34.254641 211.903508 34.768204 
C 211.389945 35.281768 211.101387 35.978407 211.101387 36.704696 
C 211.101387 37.430985 211.389945 38.127624 211.903508 38.641188 
C 212.417072 39.154751 213.113711 39.443309 213.84 39.443309 
z
"/>
   </g>
   <g id="line2d_1">
    <path clip-path="url(#p3fb3f52a38)" d="M 239.04 10.855385 
L 232.844318 17.883684 
L 227.441547 23.678833 
L 222.518848 28.665522 
L 217.544773 33.396685 
L 212.594741 37.772986 
L 208.449656 41.16317 
L 204.694034 44.004009 
L 200.39251 46.971717 
L 196.52751 49.363762 
L 192.648495 51.491327 
L 188.780306 53.331487 
L 184.796388 54.927178 
L 181.687354 55.960557 
L 177.810201 56.992453 
L 175.022497 57.563087 
L 171.461224 58.093165 
L 168.309979 58.387275 
L 163.945866 58.548136 
L 159.268048 58.443859 
L 154.103634 58.059754 
L 147.394248 57.260643 
L 138.351969 55.916703 
L 127.91307 54.428942 
L 122.218854 53.821784 
L 117.974387 53.524341 
L 112.831931 53.393119 
L 108.225386 53.535321 
L 104.131058 53.907416 
L 101.114849 54.3521 
L 97.458002 55.11254 
L 94.461913 55.939706 
L 90.934711 57.183164 
L 87.967241 58.488005 
L 85.146773 59.981754 
L 82.359955 61.739838 
L 80.029513 63.462038 
L 77.745912 65.412997 
L 75.563814 67.568604 
L 73.579533 69.830454 
L 71.536608 72.537034 
L 69.894395 75.071668 
L 68.406025 77.737811 
L 67.061613 80.561052 
L 65.897585 83.466467 
L 64.815822 86.770951 
L 63.939615 90.205704 
L 63.316005 93.520023 
L 62.865335 97.188562 
L 62.668167 100.451423 
L 62.694511 104.72769 
L 62.967067 108.321211 
L 63.463446 111.853452 
L 64.189423 115.355478 
L 65.102228 118.660163 
L 66.31103 122.106788 
L 67.603634 125.114177 
L 69.069592 127.981444 
L 70.834938 130.904821 
L 72.535546 133.320557 
L 74.344612 135.559812 
L 76.460815 137.835655 
L 78.632371 139.858249 
L 81.15472 141.880674 
L 83.79114 143.680888 
L 86.144761 145.057375 
L 88.490168 146.240701 
L 91.491473 147.514156 
L 94.384329 148.516211 
L 97.575689 149.396027 
L 101.352862 150.168701 
L 105.110811 150.684724 
L 109.056489 150.990668 
L 113.138964 151.087075 
L 117.98317 150.955206 
L 123.179824 150.570814 
L 129.304488 149.874306 
L 137.676589 148.666702 
L 149.997965 146.878126 
L 155.777476 146.269206 
L 160.94754 145.968934 
L 165.052116 145.94732 
L 168.894266 146.135443 
L 172.93366 146.579705 
L 176.811016 147.26685 
L 180.513037 148.17709 
L 183.60132 149.133694 
L 186.988883 150.393204 
L 190.771654 152.060294 
L 194.664485 154.059628 
L 198.706527 156.432109 
L 202.035149 158.604454 
L 206.259844 161.632882 
L 210.756483 165.171559 
L 214.857323 168.664567 
L 219.915313 173.297986 
L 224.764024 178.052682 
L 229.542676 183.016236 
L 234.572993 188.517569 
L 239.04 193.624615 
L 239.04 193.624615 
" style="fill:none;stroke:#000000;stroke-linecap:square;stroke-width:2.0;"/>
   </g>
   <g id="line2d_2">
    <path clip-path="url(#p3fb3f52a38)" d="M 12.24 124.085101 
L 264.24 14.859595 
L 264.24 14.859595 
" style="fill:none;stroke:#000000;stroke-linecap:square;"/>
   </g>
   <g id="line2d_3">
    <path clip-path="url(#p3fb3f52a38)" d="M 213.84 36.704696 
L 213.84 167.775304 
" style="fill:none;stroke:#000000;stroke-dasharray:6.000000,6.000000;stroke-dashoffset:0.0;"/>
   </g>
   <g id="patch_3">
    <path d="M 7.2 102.24 
L 269.28 102.24 
" style="fill:none;stroke:#000000;stroke-linecap:square;stroke-linejoin:miter;stroke-width:0.8;"/>
   </g>
   <g id="patch_4">
    <path d="M 138.24 197.28 
L 138.24 7.2 
" style="fill:none;stroke:#000000;stroke-linecap:square;stroke-linejoin:miter;stroke-width:0.8;"/>
   </g>
   <g id="matplotlib.axis_1">
    <g id="xtick_1">
     <g id="line2d_4">
      <defs>
       <path d="M 0 0 
L 0 -4 
" id="mc6cbcb4588" style="stroke:#000000;stroke-width:0.5;"/>
      </defs>
      <g>
       <use style="stroke:#000000;stroke-width:0.5;" x="37.44" xlink:href="#mc6cbcb4588" y="102.24"/>
      </g>
     </g>
     <g id="text_1">
      <!-- -4 -->
      <defs>
       <path d="M 4.890625 31.390625 
L 31.203125 31.390625 
L 31.203125 23.390625 
L 4.890625 23.390625 
z
" id="BitstreamVeraSans-Roman-2d"/>
       <path d="M 37.796875 64.3125 
L 12.890625 25.390625 
L 37.796875 25.390625 
z
M 35.203125 72.90625 
L 47.609375 72.90625 
L 47.609375 25.390625 
L 58.015625 25.390625 
L 58.015625 17.1875 
L 47.609375 17.1875 
L 47.609375 0 
L 37.796875 0 
L 37.796875 17.1875 
L 4.890625 17.1875 
L 4.890625 26.703125 
z
" id="BitstreamVeraSans-Roman-34"/>
      </defs>
      <g transform="translate(32.45484375 113.8384375)scale(0.1 -0.1)">
       <use xlink:href="#BitstreamVeraSans-Roman-2d"/>
       <use x="36.083984375" xlink:href="#BitstreamVeraSans-Roman-34"/>
      </g>
     </g>
    </g>
    <g id="xtick_2">
     <g id="line2d_5">
      <g>
       <use style="stroke:#000000;stroke-width:0.5;" x="87.84" xlink:href="#mc6cbcb4588" y="102.24"/>
      </g>
     </g>
     <g id="text_2">
      <!-- -2 -->
      <defs>
       <path d="M 19.1875 8.296875 
L 53.609375 8.296875 
L 53.609375 0 
L 7.328125 0 
L 7.328125 8.296875 
Q 12.9375 14.109375 22.625 23.890625 
Q 32.328125 33.6875 34.8125 36.53125 
Q 39.546875 41.84375 41.421875 45.53125 
Q 43.3125 49.21875 43.3125 52.78125 
Q 43.3125 58.59375 39.234375 62.25 
Q 35.15625 65.921875 28.609375 65.921875 
Q 23.96875 65.921875 18.8125 64.3125 
Q 13.671875 62.703125 7.8125 59.421875 
L 7.8125 69.390625 
Q 13.765625 71.78125 18.9375 73 
Q 24.125 74.21875 28.421875 74.21875 
Q 39.75 74.21875 46.484375 68.546875 
Q 53.21875 62.890625 53.21875 53.421875 
Q 53.21875 48.921875 51.53125 44.890625 
Q 49.859375 40.875 45.40625 35.40625 
Q 44.1875 33.984375 37.640625 27.21875 
Q 31.109375 20.453125 19.1875 8.296875 
" id="BitstreamVeraSans-Roman-32"/>
      </defs>
      <g transform="translate(82.85484375 113.8384375)scale(0.1 -0.1)">
       <use xlink:href="#BitstreamVeraSans-Roman-2d"/>
       <use x="36.083984375" xlink:href="#BitstreamVeraSans-Roman-32"/>
      </g>
     </g>
    </g>
    <g id="xtick_3">
     <g id="line2d_6">
      <g>
       <use style="stroke:#000000;stroke-width:0.5;" x="138.24" xlink:href="#mc6cbcb4588" y="102.24"/>
      </g>
     </g>
    </g>
    <g id="xtick_4">
     <g id="line2d_7">
      <g>
       <use style="stroke:#000000;stroke-width:0.5;" x="188.64" xlink:href="#mc6cbcb4588" y="102.24"/>
      </g>
     </g>
     <g id="text_3">
      <!-- 2 -->
      <g transform="translate(185.45875 113.8384375)scale(0.1 -0.1)">
       <use xlink:href="#BitstreamVeraSans-Roman-32"/>
      </g>
     </g>
    </g>
    <g id="xtick_5">
     <g id="line2d_8">
      <g>
       <use style="stroke:#000000;stroke-width:0.5;" x="239.04" xlink:href="#mc6cbcb4588" y="102.24"/>
      </g>
     </g>
     <g id="text_4">
      <!-- 4 -->
      <g transform="translate(235.85875 113.8384375)scale(0.1 -0.1)">
       <use xlink:href="#BitstreamVeraSans-Roman-34"/>
      </g>
     </g>
    </g>
    <g id="xtick_6">
     <g id="line2d_9">
      <defs>
       <path d="M 0 0 
L 0 -2 
" id="m6fbf458b1c" style="stroke:#000000;stroke-width:0.5;"/>
      </defs>
      <g>
       <use style="stroke:#000000;stroke-width:0.5;" x="12.24" xlink:href="#m6fbf458b1c" y="102.24"/>
      </g>
     </g>
    </g>
    <g id="xtick_7">
     <g id="line2d_10">
      <g>
       <use style="stroke:#000000;stroke-width:0.5;" x="24.84" xlink:href="#m6fbf458b1c" y="102.24"/>
      </g>
     </g>
    </g>
    <g id="xtick_8">
     <g id="line2d_11">
      <g>
       <use style="stroke:#000000;stroke-width:0.5;" x="50.04" xlink:href="#m6fbf458b1c" y="102.24"/>
      </g>
     </g>
    </g>
    <g id="xtick_9">
     <g id="line2d_12">
      <g>
       <use style="stroke:#000000;stroke-width:0.5;" x="62.64" xlink:href="#m6fbf458b1c" y="102.24"/>
      </g>
     </g>
    </g>
    <g id="xtick_10">
     <g id="line2d_13">
      <g>
       <use style="stroke:#000000;stroke-width:0.5;" x="75.24" xlink:href="#m6fbf458b1c" y="102.24"/>
      </g>
     </g>
    </g>
    <g id="xtick_11">
     <g id="line2d_14">
      <g>
       <use style="stroke:#000000;stroke-width:0.5;" x="100.44" xlink:href="#m6fbf458b1c" y="102.24"/>
      </g>
     </g>
    </g>
    <g id="xtick_12">
     <g id="line2d_15">
      <g>
       <use style="stroke:#000000;stroke-width:0.5;" x="113.04" xlink:href="#m6fbf458b1c" y="102.24"/>
      </g>
     </g>
    </g>
    <g id="xtick_13">
     <g id="line2d_16">
      <g>
       <use style="stroke:#000000;stroke-width:0.5;" x="125.64" xlink:href="#m6fbf458b1c" y="102.24"/>
      </g>
     </g>
    </g>
    <g id="xtick_14">
     <g id="line2d_17">
      <g>
       <use style="stroke:#000000;stroke-width:0.5;" x="150.84" xlink:href="#m6fbf458b1c" y="102.24"/>
      </g>
     </g>
    </g>
    <g id="xtick_15">
     <g id="line2d_18">
      <g>
       <use style="stroke:#000000;stroke-width:0.5;" x="163.44" xlink:href="#m6fbf458b1c" y="102.24"/>
      </g>
     </g>
    </g>
    <g id="xtick_16">
     <g id="line2d_19">
      <g>
       <use style="stroke:#000000;stroke-width:0.5;" x="176.04" xlink:href="#m6fbf458b1c" y="102.24"/>
      </g>
     </g>
    </g>
    <g id="xtick_17">
     <g id="line2d_20">
      <g>
       <use style="stroke:#000000;stroke-width:0.5;" x="201.24" xlink:href="#m6fbf458b1c" y="102.24"/>
      </g>
     </g>
    </g>
    <g id="xtick_18">
     <g id="line2d_21">
      <g>
       <use style="stroke:#000000;stroke-width:0.5;" x="213.84" xlink:href="#m6fbf458b1c" y="102.24"/>
      </g>
     </g>
    </g>
    <g id="xtick_19">
     <g id="line2d_22">
      <g>
       <use style="stroke:#000000;stroke-width:0.5;" x="226.44" xlink:href="#m6fbf458b1c" y="102.24"/>
      </g>
     </g>
    </g>
    <g id="xtick_20">
     <g id="line2d_23">
      <g>
       <use style="stroke:#000000;stroke-width:0.5;" x="251.64" xlink:href="#m6fbf458b1c" y="102.24"/>
      </g>
     </g>
    </g>
    <g id="xtick_21">
     <g id="line2d_24">
      <g>
       <use style="stroke:#000000;stroke-width:0.5;" x="264.24" xlink:href="#m6fbf458b1c" y="102.24"/>
      </g>
     </g>
    </g>
   </g>
   <g id="matplotlib.axis_2">
    <g id="ytick_1">
     <g id="line2d_25">
      <defs>
       <path d="M 0 0 
L 4 0 
" id="mdd8b7262e8" style="stroke:#000000;stroke-width:0.5;"/>
      </defs>
      <g>
       <use style="stroke:#000000;stroke-width:0.5;" x="138.24" xlink:href="#mdd8b7262e8" y="156.85275338"/>
      </g>
     </g>
     <g id="text_5">
      <!-- -5 -->
      <defs>
       <path d="M 10.796875 72.90625 
L 49.515625 72.90625 
L 49.515625 64.59375 
L 19.828125 64.59375 
L 19.828125 46.734375 
Q 21.96875 47.46875 24.109375 47.828125 
Q 26.265625 48.1875 28.421875 48.1875 
Q 40.625 48.1875 47.75 41.5 
Q 54.890625 34.8125 54.890625 23.390625 
Q 54.890625 11.625 47.5625 5.09375 
Q 40.234375 -1.421875 26.90625 -1.421875 
Q 22.3125 -1.421875 17.546875 -0.640625 
Q 12.796875 0.140625 7.71875 1.703125 
L 7.71875 11.625 
Q 12.109375 9.234375 16.796875 8.0625 
Q 21.484375 6.890625 26.703125 6.890625 
Q 35.15625 6.890625 40.078125 11.328125 
Q 45.015625 15.765625 45.015625 23.390625 
Q 45.015625 31 40.078125 35.4375 
Q 35.15625 39.890625 26.703125 39.890625 
Q 22.75 39.890625 18.8125 39.015625 
Q 14.890625 38.140625 10.796875 36.28125 
z
" id="BitstreamVeraSans-Roman-35"/>
      </defs>
      <g transform="translate(124.2696875 159.61212838)scale(0.1 -0.1)">
       <use xlink:href="#BitstreamVeraSans-Roman-2d"/>
       <use x="36.083984375" xlink:href="#BitstreamVeraSans-Roman-35"/>
      </g>
     </g>
    </g>
    <g id="ytick_2">
     <g id="line2d_26">
      <g>
       <use style="stroke:#000000;stroke-width:0.5;" x="138.24" xlink:href="#mdd8b7262e8" y="102.24"/>
      </g>
     </g>
    </g>
    <g id="ytick_3">
     <g id="line2d_27">
      <g>
       <use style="stroke:#000000;stroke-width:0.5;" x="138.24" xlink:href="#mdd8b7262e8" y="47.6272466196"/>
      </g>
     </g>
     <g id="text_6">
      <!-- 5 -->
      <g transform="translate(127.8775 50.3866216196)scale(0.1 -0.1)">
       <use xlink:href="#BitstreamVeraSans-Roman-35"/>
      </g>
     </g>
    </g>
    <g id="ytick_4">
     <g id="line2d_28">
      <defs>
       <path d="M 0 0 
L 2 0 
" id="m5c5d494757" style="stroke:#000000;stroke-width:0.5;"/>
      </defs>
      <g>
       <use style="stroke:#000000;stroke-width:0.5;" x="138.24" xlink:href="#m5c5d494757" y="189.620405409"/>
      </g>
     </g>
    </g>
    <g id="ytick_5">
     <g id="line2d_29">
      <g>
       <use style="stroke:#000000;stroke-width:0.5;" x="138.24" xlink:href="#m5c5d494757" y="178.697854732"/>
      </g>
     </g>
    </g>
    <g id="ytick_6">
     <g id="line2d_30">
      <g>
       <use style="stroke:#000000;stroke-width:0.5;" x="138.24" xlink:href="#m5c5d494757" y="167.775304056"/>
      </g>
     </g>
    </g>
    <g id="ytick_7">
     <g id="line2d_31">
      <g>
       <use style="stroke:#000000;stroke-width:0.5;" x="138.24" xlink:href="#m5c5d494757" y="145.930202704"/>
      </g>
     </g>
    </g>
    <g id="ytick_8">
     <g id="line2d_32">
      <g>
       <use style="stroke:#000000;stroke-width:0.5;" x="138.24" xlink:href="#m5c5d494757" y="135.007652028"/>
      </g>
     </g>
    </g>
    <g id="ytick_9">
     <g id="line2d_33">
      <g>
       <use style="stroke:#000000;stroke-width:0.5;" x="138.24" xlink:href="#m5c5d494757" y="124.085101352"/>
      </g>
     </g>
    </g>
    <g id="ytick_10">
     <g id="line2d_34">
      <g>
       <use style="stroke:#000000;stroke-width:0.5;" x="138.24" xlink:href="#m5c5d494757" y="113.162550676"/>
      </g>
     </g>
    </g>
    <g id="ytick_11">
     <g id="line2d_35">
      <g>
       <use style="stroke:#000000;stroke-width:0.5;" x="138.24" xlink:href="#m5c5d494757" y="91.3174493239"/>
      </g>
     </g>
    </g>
    <g id="ytick_12">
     <g id="line2d_36">
      <g>
       <use style="stroke:#000000;stroke-width:0.5;" x="138.24" xlink:href="#m5c5d494757" y="80.3948986479"/>
      </g>
     </g>
    </g>
    <g id="ytick_13">
     <g id="line2d_37">
      <g>
       <use style="stroke:#000000;stroke-width:0.5;" x="138.24" xlink:href="#m5c5d494757" y="69.4723479718"/>
      </g>
     </g>
    </g>
    <g id="ytick_14">
     <g id="line2d_38">
      <g>
       <use style="stroke:#000000;stroke-width:0.5;" x="138.24" xlink:href="#m5c5d494757" y="58.5497972957"/>
      </g>
     </g>
    </g>
    <g id="ytick_15">
     <g id="line2d_39">
      <g>
       <use style="stroke:#000000;stroke-width:0.5;" x="138.24" xlink:href="#m5c5d494757" y="36.7046959436"/>
      </g>
     </g>
    </g>
    <g id="ytick_16">
     <g id="line2d_40">
      <g>
       <use style="stroke:#000000;stroke-width:0.5;" x="138.24" xlink:href="#m5c5d494757" y="25.7821452675"/>
      </g>
     </g>
    </g>
    <g id="ytick_17">
     <g id="line2d_41">
      <g>
       <use style="stroke:#000000;stroke-width:0.5;" x="138.24" xlink:href="#m5c5d494757" y="14.8595945914"/>
      </g>
     </g>
    </g>
   </g>
   <g id="text_7">
    <!-- $Q$ -->
    <defs>
     <path d="M 30.421875 -2.203125 
Q 22.90625 -2.203125 17.09375 1.234375 
Q 11.28125 4.6875 8.125 10.8125 
Q 4.984375 16.9375 4.984375 24.421875 
Q 4.984375 35.296875 11.15625 46.09375 
Q 17.328125 56.890625 27.4375 63.703125 
Q 37.546875 70.515625 48.578125 70.515625 
Q 54.296875 70.515625 59.03125 68.453125 
Q 63.765625 66.40625 67.03125 62.765625 
Q 70.3125 59.125 72.09375 54.234375 
Q 73.875 49.359375 73.875 43.609375 
Q 73.875 36.96875 71.578125 30.25 
Q 69.28125 23.53125 65.171875 17.75 
Q 61.078125 11.96875 55.609375 7.5625 
Q 50.140625 3.171875 43.890625 0.59375 
Q 44.53125 -4 45.84375 -6.640625 
Q 47.171875 -9.28125 50.875 -9.28125 
Q 54.78125 -9.28125 58.21875 -6.4375 
Q 61.671875 -3.609375 62.59375 0.203125 
Q 62.796875 1.125 63.71875 1.125 
Q 64.796875 1.125 64.796875 -0.203125 
Q 64.0625 -3.421875 62.625 -6.71875 
Q 61.1875 -10.015625 59.15625 -12.859375 
Q 57.125 -15.71875 54.34375 -17.546875 
Q 51.5625 -19.390625 48.1875 -19.390625 
Q 39.796875 -19.390625 39.796875 -8.59375 
Q 39.796875 -7.953125 40.03125 -5.1875 
Q 40.28125 -2.4375 40.28125 -0.6875 
Q 35.453125 -2.203125 30.421875 -2.203125 
M 26.703125 4.6875 
Q 26.703125 0.6875 31.109375 0.6875 
Q 35.546875 0.6875 40.484375 2.875 
L 40.484375 3.8125 
Q 40.484375 7.859375 39.203125 10.125 
Q 37.9375 12.40625 34.28125 12.40625 
Q 32.46875 12.40625 30.6875 11.296875 
Q 28.90625 10.203125 27.796875 8.421875 
Q 26.703125 6.640625 26.703125 4.6875 
M 24.125 4.5 
Q 24.125 7.125 25.578125 9.5625 
Q 27.046875 12.015625 29.390625 13.5 
Q 31.734375 14.984375 34.421875 14.984375 
Q 38.765625 14.984375 40.734375 12.046875 
Q 42.71875 9.125 43.40625 4.390625 
Q 49.8125 8.203125 54.6875 15.28125 
Q 59.578125 22.359375 62.140625 30.828125 
Q 64.703125 39.3125 64.703125 46.921875 
Q 64.703125 52.4375 62.859375 57.125 
Q 61.03125 61.8125 57.25 64.6875 
Q 53.46875 67.578125 47.90625 67.578125 
Q 42.53125 67.578125 37.546875 64.9375 
Q 32.5625 62.3125 28.328125 57.90625 
Q 24.21875 53.65625 20.96875 47.375 
Q 17.71875 41.109375 15.953125 34.265625 
Q 14.203125 27.4375 14.203125 21.1875 
Q 14.203125 14.796875 16.6875 9.5625 
Q 19.1875 4.34375 24.515625 2 
Q 24.125 3.03125 24.125 4.5 
" id="Cmmi10-51"/>
    </defs>
    <g transform="translate(159.44 50.3866216196)scale(0.1 -0.1)">
     <use transform="translate(0.0 0.484375)" xlink:href="#Cmmi10-51"/>
    </g>
   </g>
   <g id="text_8">
    <!-- $P$ -->
    <defs>
     <path d="M 4.890625 0 
Q 3.90625 0 3.90625 1.3125 
Q 3.953125 1.5625 4.09375 2.171875 
Q 4.25 2.78125 4.515625 3.140625 
Q 4.78125 3.515625 5.171875 3.515625 
Q 11.28125 3.515625 13.71875 4.203125 
Q 14.984375 4.640625 15.578125 6.890625 
L 29.296875 61.8125 
Q 29.5 62.796875 29.5 63.1875 
Q 29.5 64.265625 28.328125 64.40625 
Q 26.421875 64.796875 21.09375 64.796875 
Q 20.125 64.796875 20.125 66.109375 
Q 20.171875 66.359375 20.3125 66.96875 
Q 20.453125 67.578125 20.71875 67.9375 
Q 21 68.3125 21.390625 68.3125 
L 55.90625 68.3125 
Q 60.640625 68.3125 65.078125 66.625 
Q 69.53125 64.9375 72.359375 61.46875 
Q 75.203125 58.015625 75.203125 53.078125 
Q 75.203125 46.734375 70.734375 41.75 
Q 66.265625 36.765625 59.59375 33.984375 
Q 52.9375 31.203125 46.6875 31.203125 
L 30.421875 31.203125 
L 24.3125 6.5 
Q 24.125 5.515625 24.125 5.078125 
Q 24.125 4.6875 24.234375 4.421875 
Q 24.359375 4.15625 24.578125 4.078125 
Q 24.8125 4 25.296875 3.90625 
Q 27.203125 3.515625 32.515625 3.515625 
Q 33.5 3.515625 33.5 2.203125 
Q 33.15625 0.78125 32.953125 0.390625 
Q 32.765625 0 31.78125 0 
z
M 30.90625 34.1875 
L 44.921875 34.1875 
Q 54.640625 34.1875 59.71875 39.40625 
Q 62.3125 42 63.9375 46.875 
Q 65.578125 51.765625 65.578125 55.71875 
Q 65.578125 60.640625 61.8125 62.71875 
Q 58.0625 64.796875 52.484375 64.796875 
L 42.921875 64.796875 
Q 40.1875 64.796875 39.296875 64.328125 
Q 38.421875 63.875 37.703125 61.375 
z
" id="Cmmi10-50"/>
    </defs>
    <g transform="translate(46.79 94.0768243239)scale(0.1 -0.1)">
     <use transform="translate(0.0 0.6875)" xlink:href="#Cmmi10-50"/>
    </g>
   </g>
   <g id="text_9">
    <!-- $P * Q$ -->
    <defs>
     <path d="M 9.421875 12.703125 
Q 8.296875 12.703125 7.390625 13.640625 
Q 6.5 14.59375 6.5 15.71875 
Q 6.5 17.4375 7.90625 18.109375 
L 22.3125 25 
L 7.90625 31.78125 
Q 6.5 32.375 6.5 34.1875 
Q 6.5 35.296875 7.390625 36.25 
Q 8.296875 37.203125 9.421875 37.203125 
Q 10.15625 37.203125 10.796875 36.71875 
L 23.578125 27.390625 
L 22.125 43.703125 
Q 22.125 44.921875 22.953125 45.703125 
Q 23.78125 46.484375 25 46.484375 
Q 26.171875 46.484375 26.96875 45.75 
Q 27.78125 45.015625 27.78125 43.890625 
L 27.78125 43.703125 
L 26.3125 27.390625 
L 39.109375 36.71875 
Q 39.75 37.203125 40.484375 37.203125 
Q 41.703125 37.203125 42.546875 36.25 
Q 43.40625 35.296875 43.40625 34.1875 
Q 43.40625 32.375 42 31.78125 
L 27.59375 25 
L 42 18.109375 
Q 43.40625 17.4375 43.40625 15.71875 
Q 43.40625 14.59375 42.546875 13.640625 
Q 41.703125 12.703125 40.484375 12.703125 
Q 39.75 12.703125 39.109375 13.1875 
L 26.3125 22.515625 
L 27.78125 6.296875 
L 27.78125 6 
Q 27.78125 4.890625 26.921875 4.15625 
Q 26.078125 3.421875 25 3.421875 
Q 23.828125 3.421875 22.96875 4.21875 
Q 22.125 5.03125 22.125 6.203125 
L 23.578125 22.515625 
L 10.796875 13.1875 
Q 10.15625 12.703125 9.421875 12.703125 
" id="Cmsy10-a4"/>
    </defs>
    <g transform="translate(194.83 28.5415202675)scale(0.1 -0.1)">
     <use transform="translate(0.0 0.484375)" xlink:href="#Cmmi10-50"/>
     <use transform="translate(81.767578125 0.484375)" xlink:href="#Cmsy10-a4"/>
     <use transform="translate(149.326171875 0.484375)" xlink:href="#Cmmi10-51"/>
    </g>
   </g>
   <g id="text_10">
    <!-- $P+Q$ -->
    <defs>
     <path d="M 7.515625 23 
Q 6.6875 23 6.140625 23.625 
Q 5.609375 24.265625 5.609375 25 
Q 5.609375 25.734375 6.140625 26.359375 
Q 6.6875 27 7.515625 27 
L 36.921875 27 
L 36.921875 56.5 
Q 36.921875 57.28125 37.5 57.78125 
Q 38.09375 58.296875 38.921875 58.296875 
Q 39.65625 58.296875 40.28125 57.78125 
Q 40.921875 57.28125 40.921875 56.5 
L 40.921875 27 
L 70.3125 27 
Q 71.046875 27 71.578125 26.359375 
Q 72.125 25.734375 72.125 25 
Q 72.125 24.265625 71.578125 23.625 
Q 71.046875 23 70.3125 23 
L 40.921875 23 
L 40.921875 -6.5 
Q 40.921875 -7.28125 40.28125 -7.78125 
Q 39.65625 -8.296875 38.921875 -8.296875 
Q 38.09375 -8.296875 37.5 -7.78125 
Q 36.921875 -7.28125 36.921875 -6.5 
L 36.921875 23 
z
" id="Cmr10-2b"/>
    </defs>
    <g transform="translate(221.15 163.981148651)scale(0.1 -0.1)">
     <use transform="translate(0.0 0.484375)" xlink:href="#Cmmi10-50"/>
     <use transform="translate(81.767578125 0.484375)" xlink:href="#Cmr10-2b"/>
     <use transform="translate(177.01171875 0.484375)" xlink:href="#Cmmi10-51"/>
    </g>
   </g>
  </g>
 </g>
 <defs>
  <clipPath id="p3fb3f52a38">
   <rect height="190.08" width="262.08" x="7.2" y="7.2"/>
  </clipPath>
 </defs>
</svg>
